<svg width="80" height="80" viewBox="0 0 80 80" fill="none" xmlns="http://www.w3.org/2000/svg">
    <path d="M40.1338 24.2492C45.1213 19.2503 53.2089 19.2509 58.1963 24.2502C63.4943 29.5614 63.9571 38.0162 59.2714 43.8762C57.2975 46.3446 55.3881 48.506 53.5439 50.3547C50.4652 53.4408 47.0534 56.171 43.3115 58.5442C42.3435 59.158 41.2559 59.4732 40.1699 59.5002H40.1269L39.8632 59.4992H39.833C38.7455 59.4736 37.6568 59.1582 36.6884 58.5442C32.9465 56.171 29.5347 53.4408 26.456 50.3547C24.6118 48.506 22.7024 46.3446 20.7285 43.8762C16.0428 38.0162 16.5057 29.5614 21.8037 24.2502C26.7091 19.333 34.6409 19.3806 39.6191 24.0129L39.8535 24.2375L39.8603 24.2434L40 24.383L40.1338 24.2492Z" fill="#FF4D4D"/>
</svg>
