<svg width="80" height="80" viewBox="0 0 80 80" fill="none" xmlns="http://www.w3.org/2000/svg">
    <path d="M40.1338 24.249C45.1214 19.2501 53.209 19.2506 58.1963 24.25C63.4944 29.5611 63.9572 38.016 59.2715 43.8759C57.2975 46.3444 55.3882 48.5058 53.544 50.3545C50.4652 53.4406 47.0535 56.1707 43.3115 58.5439C42.3435 59.1578 41.2559 59.4729 40.1699 59.5H40.127L39.8633 59.499H39.833C38.7455 59.4734 37.6569 59.158 36.6885 58.5439C32.9465 56.1707 29.5348 53.4406 26.4561 50.3545C24.6118 48.5058 22.7025 46.3444 20.7285 43.8759C16.0428 38.016 16.5056 29.5611 21.8037 24.25C26.7091 19.3327 34.6409 19.3804 39.6192 24.0127L39.8535 24.2373L39.8604 24.2431L40 24.3828L40.1338 24.249ZM56.0723 26.3681C52.2569 22.5437 46.0722 22.5436 42.2568 26.3681L40 28.6298L37.7559 26.3808C33.9306 22.6381 27.7088 22.5781 23.9277 26.3681C19.7082 30.5978 19.3395 37.3349 23.0723 42.0029C24.9921 44.4037 26.8283 46.4793 28.5801 48.2353C31.4995 51.1618 34.7368 53.7541 38.2949 56.0107C38.7929 56.3265 39.3486 56.4859 39.9033 56.499H40.0967C40.6522 56.4849 41.2078 56.3261 41.7051 56.0107C45.2633 53.7541 48.5005 51.1618 51.4199 48.2353C53.1717 46.4793 55.0079 44.4037 56.9277 42.0029C60.6605 37.3349 60.2918 30.5978 56.0723 26.3681Z" fill="black" />
</svg>
