<svg width="80" height="80" viewBox="0 0 80 80" fill="none" xmlns="http://www.w3.org/2000/svg">
<path d="M21 20.4615C21 19.1021 22.1021 18 23.4615 18H31.5385C32.8979 18 34 19.1021 34 20.4615V58.5385C34 59.8979 32.8979 61 31.5385 61H23.4615C22.1021 61 21 59.8979 21 58.5385V20.4615Z" fill="#FAFAFA"/>
<path d="M46 20.4615C46 19.1021 47.1021 18 48.4615 18H56.5385C57.8979 18 59 19.1021 59 20.4615V58.5385C59 59.8979 57.8979 61 56.5385 61H48.4615C47.1021 61 46 59.8979 46 58.5385V20.4615Z" fill="#FAFAFA"/>
</svg>
