<svg width="242" height="80" viewBox="0 0 242 80" fill="none" xmlns="http://www.w3.org/2000/svg">
<rect width="242" height="80" rx="40" fill="white"/>
<path fill-rule="evenodd" clip-rule="evenodd" d="M68.6353 42.686C70.6365 41.4545 70.6365 38.5455 68.6353 37.314L51.8068 26.958C49.7055 25.6649 47 27.1767 47 29.644V50.356C47 52.8233 49.7055 54.3351 51.8068 53.042L68.6353 42.686Z" fill="black"/>
<path d="M104.028 29.468C102.759 31.26 101.172 32.9307 99.268 34.48C97.3827 36.0293 95.1147 37.5227 92.464 38.96L91.568 37.14C94.2747 35.7213 96.5613 34.2373 98.428 32.688C100.313 31.1387 101.881 29.4213 103.132 27.536H104.868C107.332 31.288 111.168 34.4707 116.376 37.084L115.424 38.82C112.96 37.5507 110.767 36.132 108.844 34.564C106.921 32.9773 105.316 31.2787 104.028 29.468ZM113.24 44.924H104.98V49.796H115.732V51.616H92.296V49.796H102.964V44.924H94.788V43.076H102.964V38.708H95.992V36.888H112.008V38.708H104.98V43.076H113.24V44.924ZM130.712 32.38C130.469 34.1347 130.143 35.8427 129.732 37.504H133.624V39.296H119.68V37.504H123.348C123.012 35.4693 122.667 33.7613 122.312 32.38H120.352V30.616H125.952C125.672 29.5893 125.364 28.6373 125.028 27.76L126.876 27.312C127.399 28.824 127.744 29.9253 127.912 30.616H132.812V32.38H130.712ZM141.408 38.288C142.416 39.5573 143.125 40.696 143.536 41.704C143.947 42.6933 144.152 43.748 144.152 44.868C144.152 46.4173 143.816 47.528 143.144 48.2C142.472 48.8533 141.343 49.18 139.756 49.18H138.104L137.74 47.388H139.252C140.409 47.388 141.212 47.1827 141.66 46.772C142.127 46.3613 142.36 45.6333 142.36 44.588C142.36 43.6733 142.136 42.7493 141.688 41.816C141.24 40.864 140.531 39.8093 139.56 38.652L141.884 31.008H136.9V52.96H135.136V29.16H143.788V31.036L141.408 38.288ZM124.104 32.38L124.384 33.696C124.795 35.712 125.047 36.9813 125.14 37.504H128.024C128.397 36.0107 128.724 34.3027 129.004 32.38H124.104ZM123.096 52.4H121.36V41.984H131.888V50.468H123.096V52.4ZM130.152 48.76V43.776H123.096V48.76H130.152ZM155.072 39.66L152.44 40.808V49.572C152.44 50.3 152.356 50.8413 152.188 51.196C152.039 51.5693 151.759 51.8213 151.348 51.952C150.956 52.1013 150.368 52.176 149.584 52.176H148.1L147.736 50.356H149.108C149.78 50.356 150.219 50.272 150.424 50.104C150.629 49.936 150.732 49.5533 150.732 48.956V41.564L147.988 42.74L147.568 40.836C148.744 40.388 149.799 39.9493 150.732 39.52V34.34H147.988V32.52H150.732V27.396H152.44V32.52H154.904V34.34H152.44V38.764L153.924 38.12L154.708 37.756L154.876 38.708L155.072 39.66ZM171.62 42.264L170.08 41.508V52.904H168.372V51.364H157.928V52.904H156.22V41.732L154.904 42.432L154.064 40.78C155.445 40.108 156.649 39.4267 157.676 38.736C158.721 38.0267 159.627 37.2427 160.392 36.384H155.044V34.788H162.268V30.364C159.673 30.5693 157.461 30.7 155.632 30.756L155.52 29.104C157.685 29.0293 160.308 28.8707 163.388 28.628C166.468 28.3667 168.923 28.096 170.752 27.816L171.032 29.524C169.109 29.7853 166.767 30.0187 164.004 30.224V34.788H171.816V36.384H165.936C167.616 38.12 169.781 39.548 172.432 40.668L171.62 42.264ZM165.992 33.864L166.44 33.304C167.355 32.072 168.055 31.1107 168.54 30.42L169.94 31.232C169.007 32.5947 168.139 33.752 167.336 34.704L165.992 33.864ZM157.844 30.7C158.908 31.988 159.729 33.024 160.308 33.808L158.964 34.592C158.553 34.0133 157.723 32.996 156.472 31.54L157.844 30.7ZM169.996 41.452C167.42 40.0707 165.423 38.4747 164.004 36.664V40.668H162.268V36.692C160.98 38.3907 159.123 39.9773 156.696 41.452H169.996ZM157.928 45.68H162.324V42.936H157.928V45.68ZM163.976 45.68H168.372V42.936H163.976V45.68ZM162.324 47.136H157.928V49.936H162.324V47.136ZM163.976 47.136V49.936H168.372V47.136H163.976ZM186.32 38.148L186.208 40.5L185.816 48.564C185.76 49.74 185.489 50.552 185.004 51C184.537 51.4667 183.725 51.7 182.568 51.7H180.272L179.936 49.824H181.952C182.699 49.824 183.231 49.6747 183.548 49.376C183.884 49.0773 184.071 48.592 184.108 47.92C184.183 46.912 184.257 45.596 184.332 43.972C184.425 42.348 184.491 41.032 184.528 40.024H180.328C180.235 42.1707 180.076 43.9253 179.852 45.288C179.647 46.6507 179.32 47.892 178.872 49.012C178.443 50.132 177.808 51.392 176.968 52.792L175.372 51.644C176.231 50.2253 176.875 48.9187 177.304 47.724C177.733 46.5293 178.041 45.1387 178.228 43.552C178.415 41.9653 178.536 39.8093 178.592 37.084C178.667 35.964 178.704 34.8253 178.704 33.668H176.184V31.736H181.672C180.963 29.608 180.496 28.264 180.272 27.704L182.092 27.2C182.297 27.704 182.549 28.3853 182.848 29.244C183.147 30.084 183.427 30.9147 183.688 31.736H187.72V33.668H180.524L180.44 37.336L180.412 38.148H186.32ZM194.524 45.568C195.98 47.5467 197.931 49.3667 200.376 51.028L199.228 52.764C196.895 51.1213 194.944 49.2733 193.376 47.22C191.92 49.1053 189.848 51.0093 187.16 52.932L185.928 51.252C188.747 49.3667 190.865 47.4813 192.284 45.596C190.772 43.1693 189.745 40.3787 189.204 37.224C188.775 37.9707 188.28 38.7267 187.72 39.492L186.628 37.7C187.524 36.5427 188.411 34.9653 189.288 32.968C190.184 30.9707 190.828 29.0853 191.22 27.312L193.096 27.62C192.723 29.0947 192.256 30.5507 191.696 31.988H200.264V33.976H197.94C197.679 36.4773 197.277 38.652 196.736 40.5C196.213 42.348 195.476 44.0373 194.524 45.568ZM190.52 34.76C190.912 38.232 191.873 41.2747 193.404 43.888C194.151 42.5813 194.739 41.1253 195.168 39.52C195.597 37.9147 195.915 36.0667 196.12 33.976H190.884L190.52 34.76Z" fill="black"/>
</svg>
