<svg id="vector" xmlns="http://www.w3.org/2000/svg" width="110" height="110" viewBox="0 0 110 110"><path fill="#000000" d="M42.67,38.5H67.33C72.4,38.5 76.5,42.6 76.5,47.67V62.33C76.5,67.4 72.4,71.5 67.33,71.5H42.67C37.6,71.5 33.5,67.4 33.5,62.33V47.67C33.5,42.6 37.6,38.5 42.67,38.5Z" fill-opacity="0" stroke="#000000" stroke-width="3" id="path_0"/><path fill="#000000" d="M42.26,48.15H44.58L49.06,58.44H49.12L53.58,48.15H55.9V61H53.94V51.82H53.87L49.93,61H48.24L44.29,51.82H44.22V61H42.26V48.15ZM57.26,48.15H59.39L63.04,58.8H63.09L66.73,48.15H68.85L64.25,61H61.87L57.26,48.15Z" id="path_1"/></svg>