<?xml version="1.0" standalone="no"?><!DOCTYPE svg PUBLIC "-//W3C//DTD SVG 1.1//EN" "http://www.w3.org/Graphics/SVG/1.1/DTD/svg11.dtd"><svg t="1765424721984" class="icon" viewBox="0 0 1024 1024" version="1.1" xmlns="http://www.w3.org/2000/svg" p-id="6617" xmlns:xlink="http://www.w3.org/1999/xlink" width="200" height="200"><path d="M512 37.888C251.2384 37.888 37.888 251.2896 37.888 512s213.3504 474.112 474.112 474.112 474.112-213.3504 474.112-474.112S772.7104 37.888 512 37.888z m0 908.6976c-239.0016 0-434.5856-195.584-434.5856-434.5856 0-239.0016 195.584-434.5856 434.5856-434.5856 239.0016 0 434.5856 195.584 434.5856 434.5856 0 239.0016-195.584 434.5856-434.5856 434.5856z" p-id="6618"></path><path d="M660.736 444.416L499.2 338.944c-54.528-35.84-100.9664-11.9296-100.9664 53.7088v238.592c0 65.6384 44.3904 89.4976 100.9664 53.7088l161.536-105.3696c54.528-39.7824 54.528-99.4304 0-135.2704z" p-id="6619"></path></svg>